<svg xmlns="http://www.w3.org/2000/svg" version="1" width="1578.667" height="1578.667" viewBox="0 0 1184.000000 1184.000000"><path d="M311.5 149.2c-.2.7-1.6 4.7-3 8.8-1.5 4.1-2.8 8.3-3 9.3-.2.9-.7 2.3-1.2 3-.4.6-.9 2-1 3.1-.2 1-.9 3.3-1.7 5-.8 1.7-3 8-5.1 14.1-2 6-4 11.9-4.5 13-1.3 3.3-6.7 18.4-10.6 30-2 6-4 11.4-4.4 12-.4.5-1.1 2.6-1.5 4.5-.4 1.9-1.1 4.1-1.5 5-.9 1.7-7.2 20-7.1 20.7 0 .2-.7 2-1.6 4-2 4.9-12.3 34.3-12.8 36.6-.2.9-.7 2.3-1.2 3-.4.6-.9 2-1 3.1-.2 1-1 3.3-1.7 5-.8 1.7-2.9 7.4-4.7 12.6-1.8 5.2-3.7 10.6-4.2 12-1.1 2.7-1.4 3.7-2 6-.2.8-1 2.8-1.6 4.5-.7 1.6-1.4 3.7-1.7 4.5-.3 1.2-5 14.7-7 20-.3.8-.5 1.5-.4 1.5 0 0-1.3 3.7-2.9 8.2-1.6 4.5-2.7 8.4-2.3 8.7.3.3 0 .6-.6.6-.7 0-1.2.8-1.2 1.8s-.3 2.2-.7 2.6c-.5.4-.8 1.1-.8 1.4-.1 1.3-1.7 5.7-3.1 8.8-.7 1.7-1.5 4-1.7 5-.4 1.9-1.1 4-2.7 7.9-.4 1.1-2.5 6.9-4.5 13-2 6-4.1 11.9-4.6 13-.5 1.1-1.1 3-1.3 4.2-.3 1.1-1.2 3.5-2 5.2-.9 1.7-1.6 3.3-1.6 3.6-.1.8-.6 2.6-2.5 7.8-.9 2.6-1.8 5.3-1.9 6-.1.6-1 2.9-1.9 5.1-.9 2.1-1.7 4.5-1.7 5.3 0 .8-.5 2.3-1.1 3.4-.9 1.7-8.3 22.3-13.9 38.9-3.2 9.5-10.7 30.4-11.9 33.4-.6 1.6-1.3 3.6-1.5 4.5-.3 1.6-1.1 3.9-2.6 7.6-2.7 6.6-3.8 10.3-3.3 10.9.4.3.1.6-.5.6-.7 0-1.1.3-1.1.7.1.5 0 1.1-.1 1.5-.1.5-.3 1.1-.4 1.5-.1.5-1.2 3.7-2.4 7.3-1.2 3.6-2.2 6.9-2.1 7.4 0 .5-.3 1.2-.8 1.5-.4.3-2.5 5.5-4.5 11.6-2 6-4.8 13.9-6.1 17.5-1.4 3.6-2.5 6.7-2.5 7 0 .3-.6 1.8-1.2 3.5-.7 1.6-1.3 3.4-1.4 4-.2.5-.5 1.7-.8 2.5-3.3 8.8-4.8 13.6-4.6 14.1.2.3-.2 1.2-.8 2-.7.8-1.5 3-1.9 4.9-.4 1.9-1 3.7-1.4 4-.3.3-3 7.7-6 16.5s-5.9 17.1-6.4 18.5c-.6 1.4-1.1 2.8-1.2 3.2-.2.5-.4 1-.5 1.3-.1.3-.4.9-.5 1.5-.1.5-.4 1.2-.5 1.5-.1.3-.3.8-.4 1.2-.5 2.3-1.9 6.2-3.2 9.1-.9 1.8-1.7 4-1.9 5-.3 1.7-5.9 17.9-7.5 21.7-.4 1.1-2.2 6.3-4 11.5-1.8 5.2-3.6 10.4-4 11.5-.5 1.1-1.6 4.2-2.5 7-1 2.7-2 5.7-2.3 6.5-.3.8-.6 1.9-.8 2.5-1.2 4-4.6 13.4-5.3 15-.9 1.8-2 5-2.7 8-.5 1.9-3.5 10-4.4 12-.5 1.1-2.3 6-3.9 11-4.9 14.3-6.1 17.9-6.8 19.5-.3.8-.7 1.9-.9 2.5-.1.5-2.1 6.2-4.4 12.5-2.3 6.3-4.4 12.4-4.7 13.5-.2 1.1-.9 2.9-1.4 4-.5 1.1-2.7 7.4-4.9 14-2.3 6.6-4.4 12.7-4.7 13.5-.3.8-.7 1.7-.8 2-.1.3-.4 1.2-.7 2-.4.8-2.5 6.9-4.8 13.5-6.3 18.2-7.2 20.9-7 21.3 0 .1-.6 1.5-1.4 3.1-.9 1.6-1.2 3.1-.9 3.5.4.3.1.6-.5.6-.7 0-1.1.3-1 .7.2.9-.9 4.7-2.2 7.8-.5 1.1-1.5 4-2.3 6.5-2.7 7.9-9.8 28.4-10.4 30-.3.8-.5 1.8-.5 2.2.1.5-.2.8-.6.8-.5 0-.9.6-.9 1.2-.1.7-.6 2.8-1.1 4.5L.1 1036h242.5l3.6-10.8c2-5.9 6.6-19.3 10.3-29.7 3.6-10.5 7.5-21.9 8.6-25.5 1.1-3.6 2.6-7.9 3.3-9.5 1.2-2.7 3.9-10.2 4.1-11.5.2-1.3 2.7-8.7 3.6-10.5.5-1.1 1.5-4 2.3-6.5 2.5-8.2 15.8-46.5 16.6-48 .8-1.3 16.5-1.5 132.4-1.5 131.1 0 131.5 0 132.5 2 .5 1.1 2 4.9 3.1 8.5 1.2 3.6 2.6 7.4 3 8.5 1 2.6 11 32.6 11.5 34.5.5 1.8 26 76.9 26.9 79 .3.8.7 2.4.9 3.5.2 1.1 1 3.3 1.6 5 .7 1.6 1.4 3.4 1.5 4 .1.5.8 2.7 1.5 4.7l1.2 3.8 260.8-.1c173.3 0 262.2-.4 265.2-1.1 2.4-.5 5.5-1.2 6.9-1.4 5.9-1.2 16.8-7.8 20.9-12.7 1.4-1.6 3.1-3.5 3.9-4.3.7-.8 1-1.4.6-1.4s0-.8.8-1.8c1.9-2.2 2.5-3.5 5.4-13.2 1.5-4.9 1.7-12.9 1.8-75.5 0-38.5-.2-71.8-.6-74-1.9-11.7-7-21.7-14.5-28.6-3-2.7-6.1-4.9-6.9-4.9-.8 0-1.4-.4-1.4-.8 0-.8-9.8-4.5-15.5-5.9-1.6-.4-77-.8-167.3-.9-90.4-.1-164.7-.5-165-.9-.4-.3-.7-139.5-.8-309.3-.1-215.4-.5-309.7-1.2-312-.6-1.7-.8-3.2-.5-3.2.3 0 0-.6-.6-1.3-.6-.8-.8-1.6-.6-1.9 2.1-2-13.6-23.8-17.1-23.8-.7 0-1.4-.3-1.6-.8-.6-1.3-10.2-5.2-16.8-6.7-5.5-1.2-17.5-1.4-77-1.2-38.8.2-71.6.6-72.9 1-19 5.4-29.1 13.8-34.3 28.5-3.9 11-4 13-4.1 46.6-.1 26-.2 28.6-1.5 25.5-.8-1.8-1.5-3.9-1.7-4.4-.1-.6-.5-1.7-.8-2.5-.3-.8-4-11.4-8.2-23.5-4.2-12.1-8.9-25.6-10.5-30-1.5-4.4-3.8-10.9-5-14.5-1.2-3.6-2.8-7.9-3.5-9.5-.7-1.7-2.3-6.3-3.5-10.3l-2.4-7.2H426.8c-91 0-115 .3-115.3 1.2zm121.4 310c.5 1.4.7 2.9.3 3.2-.3.3-.1.6.4.6.6 0 1.6 2.4 2.3 5.2.8 2.9 1.6 5.7 1.9 6.2.5.8 15 43.6 15.6 46.1.2.5.6 1.7.9 2.5.9 2.3 6.9 20.3 7.2 21.5.1.5.5 1.7.8 2.5.9 2.2 11.8 34.2 12.2 36 .2.8 7.4 22.2 16 47.5s15.8 46.7 16 47.5c.2.8.4 1.6.5 1.7.2.2.4.7.5 1.3.1.5.3 1.1.5 1.2.1.2.3 1 .5 1.8.2 1.4-8.5 1.6-78.6 1.6-43.4 0-78.9-.3-78.9-.6s.5-2.3 1.1-4.5c.6-2.2 1.1-4.2 1.1-4.5 0-.3.4-1.1 1-1.8.6-.6.8-1.2.5-1.2-.3 0 0-1.5.8-3.3.7-1.7 1.4-3.7 1.4-4.2.1-.6 1.1-4.2 2.3-8 1.2-3.9 2.2-7.2 2.3-7.5.1-.4 1.6-5.4 6.7-22 .6-1.9 1.7-5.2 2.4-7.3.8-2 1.1-3.7.8-3.7-.4 0-.2-.6.4-1.3.5-.6 1.3-2.8 1.7-4.7.4-1.9 1-4 1.3-4.5.4-.6.7-1.5.8-2 .1-.6 1.8-6.4 3.9-12.9 2-6.5 3.8-12.3 3.9-13 .3-1.6 5.6-18.8 6.3-20.6.4-.8.7-1.7.8-2 .1-.5 2.4-7.9 8.2-26.5 2-6.6 3.8-12.6 4-13.3.2-.6.4-1.8.6-2.5.2-.6 1.6-5 3.1-9.7 1.6-4.7 2.9-9 3-9.5.1-.6 1.1-3.7 2.1-7s1.9-6.2 2-6.5c.3-1.2 4.7-15.7 5.2-17 .3-.8.7-2 .8-2.6.2-.7 1.8-5.8 3.5-11.4l3.3-10.2 2.9 8.4c1.6 4.6 3.3 9.5 3.7 11z"  style="fill: #ffffff;"/><style xmlns="">.site-theme-dark .nextStream img,
.entry-card .nextStream img,
.site-theme-dark .resumeStream img,
.entry-card .resumeStream img {
  filter: invert(100%);
}
.entry-card .mal-sync-stream {
  position: absolute;
  max-height: 17px !important;
  left: 7px;
  top: -17px;
  background: rgba(var(--color-overlay), 0.8);
  border-radius: 100% 100% 0 0;
}
.entry-card .mal-sync-stream img {
  padding: 5px;
  padding-top: 7px;
}
.entry-card .nextStream,
.entry-card .resumeStream {
  position: absolute;
  max-height: 17px !important;
  right: 7px;
  top: -15px;
  margin-right: 0 !important;
  background: rgba(var(--color-overlay), 0.8);
  border-radius: 100% 100% 0 0;
}
.entry-card .nextStream img,
.entry-card .resumeStream img {
  margin: 5px;
  margin-top: 7px;
}
</style></svg>